<mxfile host="app.diagrams.net" modified="2022-02-11T22:04:31.546Z" agent="5.0 (Windows NT 10.0; Win64; x64) AppleWebKit/537.36 (KHTML, like Gecko) Chrome/98.0.4758.80 Safari/537.36 Edg/98.0.1108.43" etag="rsjGAE0SKkvwDjCri0Gl" version="16.5.6" type="github">
  <diagram id="aWbc112McWFQ9a7TnvjA" name="Page-1">
    <mxGraphModel dx="1204" dy="1104" grid="1" gridSize="10" guides="1" tooltips="1" connect="1" arrows="1" fold="1" page="1" pageScale="1" pageWidth="850" pageHeight="1100" math="0" shadow="0">
      <root>
        <mxCell id="0" />
        <mxCell id="1" parent="0" />
        <mxCell id="auIZ9jVwC6b-1LbiOsEq-3" value="" style="edgeStyle=orthogonalEdgeStyle;rounded=0;orthogonalLoop=1;jettySize=auto;html=1;" edge="1" parent="1" source="auIZ9jVwC6b-1LbiOsEq-1" target="auIZ9jVwC6b-1LbiOsEq-2">
          <mxGeometry relative="1" as="geometry" />
        </mxCell>
        <mxCell id="auIZ9jVwC6b-1LbiOsEq-1" value="Test" style="text;html=1;strokeColor=none;fillColor=none;align=center;verticalAlign=middle;whiteSpace=wrap;rounded=0;" vertex="1" parent="1">
          <mxGeometry x="60" y="80" width="60" height="30" as="geometry" />
        </mxCell>
        <mxCell id="auIZ9jVwC6b-1LbiOsEq-5" value="" style="edgeStyle=orthogonalEdgeStyle;rounded=0;orthogonalLoop=1;jettySize=auto;html=1;" edge="1" parent="1" source="auIZ9jVwC6b-1LbiOsEq-2" target="auIZ9jVwC6b-1LbiOsEq-4">
          <mxGeometry relative="1" as="geometry" />
        </mxCell>
        <mxCell id="auIZ9jVwC6b-1LbiOsEq-2" value="" style="whiteSpace=wrap;html=1;" vertex="1" parent="1">
          <mxGeometry x="170" y="65" width="120" height="60" as="geometry" />
        </mxCell>
        <mxCell id="auIZ9jVwC6b-1LbiOsEq-7" value="" style="edgeStyle=orthogonalEdgeStyle;rounded=0;orthogonalLoop=1;jettySize=auto;html=1;" edge="1" parent="1" source="auIZ9jVwC6b-1LbiOsEq-4" target="auIZ9jVwC6b-1LbiOsEq-6">
          <mxGeometry relative="1" as="geometry" />
        </mxCell>
        <mxCell id="auIZ9jVwC6b-1LbiOsEq-4" value="" style="ellipse;whiteSpace=wrap;html=1;" vertex="1" parent="1">
          <mxGeometry x="370" y="65" width="120" height="60" as="geometry" />
        </mxCell>
        <mxCell id="auIZ9jVwC6b-1LbiOsEq-6" value="" style="rhombus;whiteSpace=wrap;html=1;" vertex="1" parent="1">
          <mxGeometry x="590" y="55" width="80" height="80" as="geometry" />
        </mxCell>
      </root>
    </mxGraphModel>
  </diagram>
</mxfile>
